<svg id="Layer_1" data-name="Layer 1" xmlns="http://www.w3.org/2000/svg" viewBox="0 0 984.46724 1071.24759"><path d="M1029.84922,425.4655,794.85662,929.41625c-5.91326,12.62922-20.954,22.90208-33.59694,22.90208H374.56494a15.328,15.328,0,0,0-5.6859,1.21262L73.7616,1073.18638c-18.78018,7.59269-31.53686-3.4708-23.59279-20.50094L474.93205,141.84906c4.04955-8.70713,12.643-16.60814,22.22342-20.50267L779.63164,6.81362c18.78018-7.59269,31.53514,3.4708,23.59106,20.50094L633.56028,391.10722c-2.93511,6.33528-.22565,11.45793,6.10963,11.45793H1017.63C1030.30051,402.56515,1035.76249,412.838,1029.84922,425.4655ZM706.13,505.64172H591.611c-6.34905,0-13.87112,5.10715-16.80622,11.45793L425.26438,837.78383c-2.9351,6.33528-.22565,11.45793,6.10963,11.45793H545.90678c6.337,0,13.85734-5.12265,16.79245-11.45793L712.23966,517.09965C715.21782,510.74887,712.47908,505.64172,706.13,505.64172Z" transform="translate(-47.76638 -4.37621)" fill="#f1f1f3"/></svg>