<svg id="Layer_1" data-name="Layer 1" xmlns="http://www.w3.org/2000/svg" viewBox="0 0 785.38639 222.02567"><path d="M338.68652,503.92188l-48.7041,104.44824a8.57486,8.57486,0,0,1-6.96289,4.74707H202.87305a3.19588,3.19588,0,0,0-1.17871.251l-61.166,24.79981c-3.89258,1.57324-6.53613-.71973-4.88965-4.249l88.03613-188.7793a8.94811,8.94811,0,0,1,4.60645-4.249l58.5459-23.73828c3.89258-1.57324,6.53613.71875,4.88965,4.249l-35.16407,75.39941c-.60839,1.31348-.04687,2.375,1.26563,2.375H336.1543C338.78027,499.17578,339.91211,501.30469,338.68652,503.92188Zm-67.09375,16.61718H247.85742a4.26171,4.26171,0,0,0-3.48242,2.375l-30.99414,66.46485c-.6084,1.3125-.04688,2.375,1.2666,2.375h23.73828a4.26942,4.26942,0,0,0,3.47949-2.375l30.99415-66.46485C273.47656,521.59766,272.90918,520.53906,271.59277,520.53906Z" transform="translate(-135.1407 -416.64726)" fill="#f1f1f1"/><path d="M493.459,503.92188,444.75781,608.37012a8.575,8.575,0,0,1-6.96386,4.74707H304.86426c-2.62012,0-3.76074-2.12891-2.53321-4.74707L351.0332,503.92188a8.57583,8.57583,0,0,1,6.96289-4.7461h132.9336C493.55566,499.17578,494.6875,501.30469,493.459,503.92188Zm-67.082,16.61718H402.63867a4.26279,4.26279,0,0,0-3.48047,2.375L368.165,589.37891c-.61133,1.3125-.04981,2.375,1.26562,2.375H393.166a4.27,4.27,0,0,0,3.48339-2.375l30.99414-66.46485C428.252,521.59766,427.68164,520.53906,426.377,520.53906Z" transform="translate(-135.1407 -416.64726)" fill="#f1f1f1"/><path d="M648.166,503.92188,599.46387,608.37012a8.57489,8.57489,0,0,1-6.96289,4.74707H459.57031c-2.62011,0-3.76074-2.12891-2.53222-4.74707l48.70117-104.44824a8.57593,8.57593,0,0,1,6.96386-4.7461h47.47559c2.61817,0,3.75,2.12891,2.5332,4.7461l-39.84961,85.457c-.60839,1.3125-.04687,2.375,1.26661,2.375h23.73828a4.27093,4.27093,0,0,0,3.48047-2.375l39.84863-85.457a8.57594,8.57594,0,0,1,6.96387-4.7461h47.47558C648.26172,499.17578,649.39355,501.30469,648.166,503.92188Z" transform="translate(-135.1407 -416.64726)" fill="#f1f1f1"/><path d="M755.9043,421.40137,668.71289,608.37012a8.57351,8.57351,0,0,1-6.96289,4.74707H614.27637c-2.62012,0-3.76075-2.12891-2.53223-4.74707l76.11914-163.23047a8.94231,8.94231,0,0,1,4.60547-4.249l58.5459-23.73828C754.90723,415.5791,757.55078,417.87109,755.9043,421.40137Z" transform="translate(-135.1407 -416.64726)" fill="#f1f1f1"/><path d="M920.03027,421.40137,831.99414,610.18066a8.94227,8.94227,0,0,1-4.60547,4.249L768.84277,638.168c-3.89257,1.57324-6.53613-.71973-4.88965-4.249l8.5918-18.42774c.61133-1.31543.04981-2.374-1.2666-2.374h-78.332c-2.62012,0-3.76074-2.12891-2.5332-4.74707l48.70214-104.44824a8.57583,8.57583,0,0,1,6.96289-4.7461h78.33594a4.26752,4.26752,0,0,0,3.48047-2.375l24.09473-51.66113a8.93119,8.93119,0,0,1,4.60547-4.249l58.54589-23.73828C919.0332,415.5791,921.67383,417.87109,920.03027,421.40137ZM814.4502,520.53906H790.71191a4.26276,4.26276,0,0,0-3.48046,2.375l-30.99317,66.46485c-.6084,1.3125-.04687,2.375,1.26563,2.375h23.73828a4.26958,4.26958,0,0,0,3.48047-2.375l30.99414-66.46485C816.334,521.59766,815.76367,520.53906,814.4502,520.53906Z" transform="translate(-135.1407 -416.64726)" fill="#f1f1f1"/><path d="M904.59367,604.05581c.57751,8.05436,1.14728,16.00083,1.72659,24.0803h-4.26317c-.35887-4.84351-.713-9.62253-1.06707-14.40154l-.40038-.04132c-1.72379,4.20536-3.45693,8.40694-5.16493,12.61871-.43568,1.07434-.67853,2.03528-2.3087,2.02149-1.6728-.01414-1.812-1.11853-2.22995-2.12878-1.57307-3.80262-3.11666-7.61744-4.67789-11.425-.16042-.39124-.365-.76437-.79081-1.64688-.39193,5.31838-.74378,10.093-1.10455,14.98873h-4.26036l1.71665-24.157a19.76937,19.76937,0,0,1,3.52153.06432c.49339.09286,1.023.81171,1.25174,1.36427,2.065,4.989,4.06581,10.00449,6.08977,15.01048.13866.34295.31231.67176.60827,1.3025,1.98206-4.9676,3.84748-9.65649,5.72378-14.341C900.39783,603.78578,900.404,603.78823,904.59367,604.05581Z" transform="translate(-135.1407 -416.64726)" fill="#f1f1f1"/><path d="M879.837,604.11617v3.73048h-8.37415v20.28486h-4.3V607.95413H858.7053v-3.838Z" transform="translate(-135.1407 -416.64726)" fill="#f1f1f1"/></svg>